<svg width="1440" height="1024" viewBox="0 0 1440 1024" fill="none" xmlns="http://www.w3.org/2000/svg">
<rect width="1440" height="1024" fill="white"/>
<rect width="1440" height="210" fill="#00C0F3"/>
<rect y="210" width="1440" height="89" fill="#00C0F3"/>
<path d="M59.1226 992H47.4771V990.376L53.6294 983.541C54.5409 982.507 55.1675 981.669 55.5093 981.026C55.8592 980.375 56.0342 979.703 56.0342 979.012C56.0342 978.084 55.7534 977.323 55.1919 976.729C54.6304 976.135 53.8817 975.838 52.9458 975.838C51.8228 975.838 50.9479 976.159 50.3213 976.802C49.7028 977.437 49.3936 978.324 49.3936 979.463H47.1353C47.1353 977.828 47.6602 976.505 48.71 975.496C49.7679 974.487 51.1799 973.982 52.9458 973.982C54.5978 973.982 55.904 974.418 56.8643 975.289C57.8245 976.151 58.3047 977.303 58.3047 978.743C58.3047 980.493 57.1898 982.576 54.96 984.993L50.1992 990.157H59.1226V992ZM72.6602 984.419C72.6602 987.064 72.2085 989.03 71.3052 990.315C70.4019 991.601 68.9899 992.244 67.0693 992.244C65.1732 992.244 63.7694 991.618 62.8579 990.364C61.9465 989.103 61.4744 987.223 61.4419 984.725V981.709C61.4419 979.097 61.8936 977.156 62.7969 975.887C63.7002 974.617 65.1162 973.982 67.0449 973.982C68.9574 973.982 70.3652 974.597 71.2686 975.826C72.1719 977.046 72.6357 978.934 72.6602 981.49V984.419ZM70.4019 981.331C70.4019 979.419 70.1333 978.027 69.5962 977.156C69.0591 976.277 68.2087 975.838 67.0449 975.838C65.8893 975.838 65.047 976.273 64.5181 977.144C63.9891 978.015 63.7165 979.354 63.7002 981.16V984.773C63.7002 986.694 63.9769 988.114 64.5303 989.034C65.0918 989.945 65.9382 990.401 67.0693 990.401C68.1842 990.401 69.0103 989.97 69.5474 989.107C70.0926 988.244 70.3774 986.885 70.4019 985.03V981.331ZM87.1987 992H75.5532V990.376L81.7056 983.541C82.617 982.507 83.2437 981.669 83.5854 981.026C83.9354 980.375 84.1104 979.703 84.1104 979.012C84.1104 978.084 83.8296 977.323 83.2681 976.729C82.7065 976.135 81.9578 975.838 81.022 975.838C79.8989 975.838 79.0241 976.159 78.3975 976.802C77.779 977.437 77.4697 978.324 77.4697 979.463H75.2114C75.2114 977.828 75.7363 976.505 76.7861 975.496C77.8441 974.487 79.256 973.982 81.022 973.982C82.674 973.982 83.9801 974.418 84.9404 975.289C85.9007 976.151 86.3809 977.303 86.3809 978.743C86.3809 980.493 85.266 982.576 83.0361 984.993L78.2754 990.157H87.1987V992ZM100.736 984.419C100.736 987.064 100.285 989.03 99.3813 990.315C98.478 991.601 97.0661 992.244 95.1455 992.244C93.2493 992.244 91.8455 991.618 90.9341 990.364C90.0226 989.103 89.5506 987.223 89.5181 984.725V981.709C89.5181 979.097 89.9697 977.156 90.873 975.887C91.7764 974.617 93.1924 973.982 95.1211 973.982C97.0335 973.982 98.4414 974.597 99.3447 975.826C100.248 977.046 100.712 978.934 100.736 981.49V984.419ZM98.478 981.331C98.478 979.419 98.2095 978.027 97.6724 977.156C97.1353 976.277 96.2848 975.838 95.1211 975.838C93.9655 975.838 93.1232 976.273 92.5942 977.144C92.0653 978.015 91.7926 979.354 91.7764 981.16V984.773C91.7764 986.694 92.0531 988.114 92.6064 989.034C93.168 989.945 94.0143 990.401 95.1455 990.401C96.2604 990.401 97.0864 989.97 97.6235 989.107C98.1688 988.244 98.4536 986.885 98.478 985.03V981.331ZM103.788 995.54L102.506 994.661C103.271 993.595 103.67 992.496 103.703 991.365V989.327H105.912V991.097C105.912 991.919 105.709 992.741 105.302 993.562C104.903 994.384 104.398 995.044 103.788 995.54ZM122.77 974.227H125.126V986.812C125.126 988.513 124.613 989.843 123.588 990.804C122.571 991.764 121.212 992.244 119.511 992.244C117.745 992.244 116.369 991.792 115.385 990.889C114.4 989.986 113.908 988.72 113.908 987.093H116.251C116.251 988.11 116.528 988.903 117.082 989.473C117.643 990.043 118.453 990.328 119.511 990.328C120.479 990.328 121.26 990.022 121.854 989.412C122.457 988.802 122.762 987.947 122.77 986.849V974.227ZM128.166 985.274C128.166 983.98 128.418 982.816 128.922 981.783C129.435 980.749 130.143 979.952 131.046 979.39C131.958 978.829 132.995 978.548 134.159 978.548C135.958 978.548 137.41 979.17 138.517 980.416C139.632 981.661 140.189 983.317 140.189 985.384V985.542C140.189 986.828 139.941 987.984 139.445 989.009C138.957 990.027 138.253 990.82 137.333 991.39C136.422 991.959 135.372 992.244 134.184 992.244C132.393 992.244 130.941 991.622 129.826 990.376C128.719 989.131 128.166 987.483 128.166 985.433V985.274ZM130.436 985.542C130.436 987.007 130.774 988.183 131.449 989.07C132.133 989.957 133.044 990.401 134.184 990.401C135.331 990.401 136.243 989.953 136.918 989.058C137.593 988.155 137.931 986.893 137.931 985.274C137.931 983.825 137.585 982.653 136.894 981.758C136.21 980.855 135.299 980.403 134.159 980.403C133.044 980.403 132.145 980.847 131.461 981.734C130.778 982.621 130.436 983.89 130.436 985.542ZM148.502 992.244C146.712 992.244 145.255 991.658 144.132 990.486C143.009 989.306 142.448 987.732 142.448 985.762V985.347C142.448 984.037 142.696 982.869 143.192 981.844C143.697 980.81 144.397 980.005 145.292 979.427C146.195 978.841 147.172 978.548 148.222 978.548C149.939 978.548 151.273 979.113 152.226 980.245C153.178 981.376 153.654 982.995 153.654 985.103V986.043H144.706C144.739 987.345 145.117 988.399 145.841 989.205C146.574 990.002 147.501 990.401 148.625 990.401C149.422 990.401 150.097 990.238 150.651 989.913C151.204 989.587 151.688 989.156 152.104 988.619L153.483 989.693C152.376 991.394 150.716 992.244 148.502 992.244ZM148.222 980.403C147.31 980.403 146.545 980.737 145.927 981.404C145.308 982.063 144.926 982.991 144.779 984.188H151.396V984.017C151.33 982.869 151.021 981.982 150.468 981.355C149.914 980.721 149.166 980.403 148.222 980.403ZM158.732 992H156.474V973.25H158.732V992ZM181.986 986.36C181.767 988.24 181.071 989.693 179.899 990.718C178.735 991.736 177.185 992.244 175.248 992.244C173.148 992.244 171.464 991.491 170.194 989.986C168.933 988.48 168.302 986.466 168.302 983.943V982.234C168.302 980.582 168.595 979.13 169.181 977.876C169.775 976.623 170.613 975.663 171.696 974.996C172.778 974.32 174.031 973.982 175.456 973.982C177.344 973.982 178.857 974.511 179.997 975.569C181.136 976.619 181.799 978.076 181.986 979.939H179.63C179.427 978.523 178.983 977.498 178.3 976.863C177.624 976.229 176.676 975.911 175.456 975.911C173.958 975.911 172.782 976.465 171.928 977.571C171.081 978.678 170.658 980.253 170.658 982.295V984.017C170.658 985.945 171.061 987.479 171.867 988.619C172.672 989.758 173.799 990.328 175.248 990.328C176.55 990.328 177.547 990.035 178.239 989.449C178.939 988.855 179.403 987.825 179.63 986.36H181.986ZM187.101 980.391C188.102 979.162 189.404 978.548 191.007 978.548C193.799 978.548 195.207 980.123 195.231 983.272V992H192.973V983.26C192.965 982.308 192.745 981.604 192.313 981.148C191.89 980.692 191.227 980.464 190.324 980.464C189.591 980.464 188.948 980.66 188.395 981.05C187.842 981.441 187.41 981.954 187.101 982.588V992H184.843V973.25H187.101V980.391ZM206.767 992C206.636 991.74 206.531 991.276 206.449 990.608C205.399 991.699 204.146 992.244 202.689 992.244C201.387 992.244 200.317 991.878 199.479 991.146C198.649 990.405 198.234 989.469 198.234 988.338C198.234 986.963 198.755 985.896 199.796 985.14C200.846 984.375 202.319 983.992 204.215 983.992H206.413V982.955C206.413 982.165 206.177 981.539 205.705 981.075C205.233 980.603 204.537 980.367 203.617 980.367C202.812 980.367 202.136 980.57 201.591 980.977C201.046 981.384 200.773 981.876 200.773 982.454H198.502C198.502 981.795 198.734 981.16 199.198 980.55C199.67 979.931 200.305 979.443 201.103 979.085C201.908 978.727 202.791 978.548 203.751 978.548C205.273 978.548 206.465 978.93 207.328 979.695C208.191 980.452 208.638 981.498 208.671 982.833V988.912C208.671 990.124 208.826 991.089 209.135 991.805V992H206.767ZM203.019 990.279C203.727 990.279 204.398 990.096 205.033 989.729C205.668 989.363 206.128 988.887 206.413 988.301V985.591H204.643C201.876 985.591 200.492 986.401 200.492 988.021C200.492 988.729 200.728 989.282 201.2 989.681C201.672 990.079 202.278 990.279 203.019 990.279ZM216.374 988.936L219.645 978.792H221.952L217.216 992H215.495L210.709 978.792H213.017L216.374 988.936ZM229.435 992.244C227.645 992.244 226.188 991.658 225.065 990.486C223.942 989.306 223.38 987.732 223.38 985.762V985.347C223.38 984.037 223.629 982.869 224.125 981.844C224.63 980.81 225.329 980.005 226.225 979.427C227.128 978.841 228.104 978.548 229.154 978.548C230.871 978.548 232.206 979.113 233.158 980.245C234.11 981.376 234.586 982.995 234.586 985.103V986.043H225.639C225.671 987.345 226.05 988.399 226.774 989.205C227.506 990.002 228.434 990.401 229.557 990.401C230.355 990.401 231.03 990.238 231.583 989.913C232.137 989.587 232.621 989.156 233.036 988.619L234.416 989.693C233.309 991.394 231.649 992.244 229.435 992.244ZM229.154 980.403C228.243 980.403 227.478 980.737 226.859 981.404C226.241 982.063 225.858 982.991 225.712 984.188H232.328V984.017C232.263 982.869 231.954 981.982 231.4 981.355C230.847 980.721 230.098 980.403 229.154 980.403ZM244.901 988.497C244.901 987.886 244.669 987.414 244.206 987.081C243.75 986.739 242.948 986.446 241.801 986.202C240.661 985.958 239.754 985.665 239.079 985.323C238.411 984.981 237.915 984.574 237.589 984.102C237.272 983.63 237.113 983.069 237.113 982.417C237.113 981.335 237.569 980.42 238.48 979.671C239.4 978.922 240.572 978.548 241.996 978.548C243.493 978.548 244.706 978.934 245.634 979.708C246.57 980.481 247.038 981.469 247.038 982.674H244.767C244.767 982.055 244.503 981.522 243.974 981.075C243.453 980.627 242.794 980.403 241.996 980.403C241.174 980.403 240.531 980.582 240.067 980.94C239.604 981.299 239.372 981.766 239.372 982.344C239.372 982.889 239.587 983.3 240.019 983.577C240.45 983.854 241.227 984.118 242.35 984.371C243.481 984.623 244.397 984.924 245.097 985.274C245.797 985.624 246.313 986.047 246.647 986.543C246.989 987.032 247.16 987.63 247.16 988.338C247.16 989.518 246.688 990.466 245.744 991.182C244.8 991.89 243.575 992.244 242.069 992.244C241.011 992.244 240.076 992.057 239.262 991.683C238.448 991.308 237.809 990.787 237.345 990.12C236.889 989.445 236.662 988.716 236.662 987.935H238.92C238.961 988.692 239.262 989.294 239.823 989.742C240.393 990.181 241.142 990.401 242.069 990.401C242.924 990.401 243.607 990.23 244.12 989.888C244.641 989.538 244.901 989.074 244.901 988.497ZM261.894 984.078C259.883 983.5 258.419 982.792 257.499 981.954C256.588 981.107 256.132 980.066 256.132 978.829C256.132 977.429 256.689 976.273 257.804 975.362C258.927 974.442 260.384 973.982 262.174 973.982C263.395 973.982 264.481 974.218 265.434 974.69C266.394 975.162 267.134 975.813 267.655 976.644C268.184 977.474 268.449 978.381 268.449 979.366H266.093C266.093 978.292 265.751 977.449 265.067 976.839C264.384 976.22 263.419 975.911 262.174 975.911C261.019 975.911 260.115 976.167 259.464 976.68C258.821 977.185 258.5 977.889 258.5 978.792C258.5 979.516 258.805 980.131 259.416 980.635C260.034 981.132 261.08 981.587 262.553 982.002C264.034 982.417 265.189 982.877 266.02 983.382C266.858 983.878 267.476 984.46 267.875 985.127C268.282 985.795 268.485 986.58 268.485 987.483C268.485 988.924 267.924 990.079 266.801 990.95C265.678 991.813 264.176 992.244 262.296 992.244C261.076 992.244 259.936 992.012 258.878 991.548C257.82 991.076 257.003 990.433 256.425 989.62C255.855 988.806 255.57 987.882 255.57 986.849H257.926C257.926 987.923 258.321 988.773 259.11 989.4C259.908 990.018 260.97 990.328 262.296 990.328C263.533 990.328 264.481 990.075 265.141 989.571C265.8 989.066 266.129 988.379 266.129 987.508C266.129 986.637 265.824 985.966 265.214 985.494C264.604 985.014 263.497 984.542 261.894 984.078ZM276.627 992.244C274.837 992.244 273.38 991.658 272.257 990.486C271.134 989.306 270.573 987.732 270.573 985.762V985.347C270.573 984.037 270.821 982.869 271.317 981.844C271.822 980.81 272.522 980.005 273.417 979.427C274.32 978.841 275.297 978.548 276.347 978.548C278.064 978.548 279.398 979.113 280.351 980.245C281.303 981.376 281.779 982.995 281.779 985.103V986.043H272.831C272.864 987.345 273.242 988.399 273.966 989.205C274.699 990.002 275.626 990.401 276.75 990.401C277.547 990.401 278.222 990.238 278.776 989.913C279.329 989.587 279.813 989.156 280.229 988.619L281.608 989.693C280.501 991.394 278.841 992.244 276.627 992.244ZM276.347 980.403C275.435 980.403 274.67 980.737 274.052 981.404C273.433 982.063 273.051 982.991 272.904 984.188H279.521V984.017C279.455 982.869 279.146 981.982 278.593 981.355C278.039 980.721 277.291 980.403 276.347 980.403ZM283.854 985.286C283.854 983.211 284.33 981.571 285.282 980.367C286.234 979.154 287.512 978.548 289.115 978.548C290.678 978.548 291.911 979.073 292.814 980.123L292.912 978.792H294.987V997.078H292.729V990.779C291.817 991.756 290.604 992.244 289.091 992.244C287.496 992.244 286.222 991.626 285.27 990.389C284.326 989.144 283.854 987.496 283.854 985.445V985.286ZM286.112 985.542C286.112 987.056 286.43 988.244 287.064 989.107C287.707 989.97 288.57 990.401 289.652 990.401C290.995 990.401 292.021 989.807 292.729 988.619V982.149C292.012 980.985 290.995 980.403 289.677 980.403C288.586 980.403 287.72 980.839 287.077 981.709C286.434 982.572 286.112 983.85 286.112 985.542ZM306.767 990.694C305.888 991.727 304.598 992.244 302.897 992.244C301.489 992.244 300.415 991.837 299.674 991.023C298.942 990.201 298.572 988.989 298.563 987.386V978.792H300.822V987.325C300.822 989.327 301.636 990.328 303.263 990.328C304.988 990.328 306.136 989.685 306.706 988.399V978.792H308.964V992H306.815L306.767 990.694ZM317.887 992.244C316.097 992.244 314.64 991.658 313.517 990.486C312.394 989.306 311.833 987.732 311.833 985.762V985.347C311.833 984.037 312.081 982.869 312.577 981.844C313.082 980.81 313.782 980.005 314.677 979.427C315.58 978.841 316.557 978.548 317.606 978.548C319.324 978.548 320.658 979.113 321.61 980.245C322.562 981.376 323.039 982.995 323.039 985.103V986.043H314.091C314.123 987.345 314.502 988.399 315.226 989.205C315.958 990.002 316.886 990.401 318.009 990.401C318.807 990.401 319.482 990.238 320.036 989.913C320.589 989.587 321.073 989.156 321.488 988.619L322.868 989.693C321.761 991.394 320.101 992.244 317.887 992.244ZM317.606 980.403C316.695 980.403 315.93 980.737 315.312 981.404C314.693 982.063 314.311 982.991 314.164 984.188H320.78V984.017C320.715 982.869 320.406 981.982 319.853 981.355C319.299 980.721 318.55 980.403 317.606 980.403ZM328.117 992H325.858V978.792H328.117V992ZM325.675 975.289C325.675 974.922 325.785 974.613 326.005 974.361C326.233 974.109 326.566 973.982 327.006 973.982C327.445 973.982 327.779 974.109 328.007 974.361C328.235 974.613 328.349 974.922 328.349 975.289C328.349 975.655 328.235 975.96 328.007 976.204C327.779 976.448 327.445 976.57 327.006 976.57C326.566 976.57 326.233 976.448 326.005 976.204C325.785 975.96 325.675 975.655 325.675 975.289ZM338.126 980.818C337.785 980.761 337.414 980.733 337.016 980.733C335.535 980.733 334.529 981.364 334 982.625V992H331.742V978.792H333.939L333.976 980.318C334.717 979.138 335.766 978.548 337.125 978.548C337.565 978.548 337.899 978.605 338.126 978.719V980.818ZM347.88 992C347.75 991.74 347.644 991.276 347.562 990.608C346.513 991.699 345.259 992.244 343.803 992.244C342.501 992.244 341.431 991.878 340.592 991.146C339.762 990.405 339.347 989.469 339.347 988.338C339.347 986.963 339.868 985.896 340.91 985.14C341.959 984.375 343.432 983.992 345.329 983.992H347.526V982.955C347.526 982.165 347.29 981.539 346.818 981.075C346.346 980.603 345.65 980.367 344.73 980.367C343.925 980.367 343.249 980.57 342.704 980.977C342.159 981.384 341.886 981.876 341.886 982.454H339.616C339.616 981.795 339.848 981.16 340.312 980.55C340.784 979.931 341.418 979.443 342.216 979.085C343.021 978.727 343.904 978.548 344.865 978.548C346.387 978.548 347.579 978.93 348.441 979.695C349.304 980.452 349.752 981.498 349.784 982.833V988.912C349.784 990.124 349.939 991.089 350.248 991.805V992H347.88ZM344.132 990.279C344.84 990.279 345.512 990.096 346.146 989.729C346.781 989.363 347.241 988.887 347.526 988.301V985.591H345.756C342.989 985.591 341.605 986.401 341.605 988.021C341.605 988.729 341.841 989.282 342.313 989.681C342.785 990.079 343.392 990.279 344.132 990.279Z" fill="black"/>
<path d="M63.5195 84.9863C58.6953 83.5996 55.1797 81.9004 52.9727 79.8887C50.7852 77.8574 49.6914 75.3574 49.6914 72.3887C49.6914 69.0293 51.0293 66.2559 53.7051 64.0684C56.4004 61.8613 59.8965 60.7578 64.1934 60.7578C67.123 60.7578 69.7305 61.3242 72.0156 62.457C74.3203 63.5898 76.0977 65.1523 77.3477 67.1445C78.6172 69.1367 79.252 71.3145 79.252 73.6777H73.5977C73.5977 71.0996 72.7773 69.0781 71.1367 67.6133C69.4961 66.1289 67.1816 65.3867 64.1934 65.3867C61.4199 65.3867 59.252 66.002 57.6895 67.2324C56.1465 68.4434 55.375 70.1328 55.375 72.3008C55.375 74.0391 56.1074 75.5137 57.5723 76.7246C59.0566 77.916 61.5664 79.0098 65.1016 80.0059C68.6562 81.002 71.4297 82.1055 73.4219 83.3164C75.4336 84.5078 76.918 85.9043 77.875 87.5059C78.8516 89.1074 79.3398 90.9922 79.3398 93.1602C79.3398 96.6172 77.9922 99.3906 75.2969 101.48C72.6016 103.551 68.998 104.586 64.4863 104.586C61.5566 104.586 58.8223 104.029 56.2832 102.916C53.7441 101.783 51.7812 100.24 50.3945 98.2871C49.0273 96.334 48.3438 94.1172 48.3438 91.6367H53.998C53.998 94.2148 54.9453 96.2559 56.8398 97.7598C58.7539 99.2441 61.3027 99.9863 64.4863 99.9863C67.4551 99.9863 69.7305 99.3809 71.3125 98.1699C72.8945 96.959 73.6855 95.3086 73.6855 93.2188C73.6855 91.1289 72.9531 89.5176 71.4883 88.3848C70.0234 87.2324 67.3672 86.0996 63.5195 84.9863ZM91.6152 104H86.1953V72.3008H91.6152V104ZM85.7559 63.8926C85.7559 63.0137 86.0195 62.2715 86.5469 61.666C87.0938 61.0605 87.8945 60.7578 88.9492 60.7578C90.0039 60.7578 90.8047 61.0605 91.3516 61.666C91.8984 62.2715 92.1719 63.0137 92.1719 63.8926C92.1719 64.7715 91.8984 65.5039 91.3516 66.0898C90.8047 66.6758 90.0039 66.9688 88.9492 66.9688C87.8945 66.9688 87.0938 66.6758 86.5469 66.0898C86.0195 65.5039 85.7559 64.7715 85.7559 63.8926ZM107.67 64.625V72.3008H113.588V76.4902H107.67V96.1484C107.67 97.418 107.934 98.375 108.461 99.0195C108.988 99.6445 109.887 99.957 111.156 99.957C111.781 99.957 112.641 99.8398 113.734 99.6055V104C112.309 104.391 110.922 104.586 109.574 104.586C107.152 104.586 105.326 103.854 104.096 102.389C102.865 100.924 102.25 98.8438 102.25 96.1484V76.4902H96.4785V72.3008H102.25V64.625H107.67ZM125.834 104H120.414V72.3008H125.834V104ZM119.975 63.8926C119.975 63.0137 120.238 62.2715 120.766 61.666C121.312 61.0605 122.113 60.7578 123.168 60.7578C124.223 60.7578 125.023 61.0605 125.57 61.666C126.117 62.2715 126.391 63.0137 126.391 63.8926C126.391 64.7715 126.117 65.5039 125.57 66.0898C125.023 66.6758 124.223 66.9688 123.168 66.9688C122.113 66.9688 121.312 66.6758 120.766 66.0898C120.238 65.5039 119.975 64.7715 119.975 63.8926ZM133.1 87.8574C133.1 84.752 133.705 81.959 134.916 79.4785C136.146 76.998 137.846 75.084 140.014 73.7363C142.201 72.3887 144.691 71.7148 147.484 71.7148C151.801 71.7148 155.287 73.209 157.943 76.1973C160.619 79.1855 161.957 83.1602 161.957 88.1211V88.502C161.957 91.5879 161.361 94.3613 160.17 96.8223C158.998 99.2637 157.309 101.168 155.102 102.535C152.914 103.902 150.395 104.586 147.543 104.586C143.246 104.586 139.76 103.092 137.084 100.104C134.428 97.1152 133.1 93.1602 133.1 88.2383V87.8574ZM138.549 88.502C138.549 92.0176 139.359 94.8398 140.98 96.9688C142.621 99.0977 144.809 100.162 147.543 100.162C150.297 100.162 152.484 99.0879 154.105 96.9395C155.727 94.7715 156.537 91.7441 156.537 87.8574C156.537 84.3809 155.707 81.5684 154.047 79.4199C152.406 77.252 150.219 76.168 147.484 76.168C144.809 76.168 142.65 77.2324 141.01 79.3613C139.369 81.4902 138.549 84.5371 138.549 88.502ZM211.703 96.5293L217.797 72.3008H223.217L213.988 104H209.594L201.889 79.9766L194.389 104H189.994L180.795 72.3008H186.186L192.426 96.0312L199.809 72.3008H204.174L211.703 96.5293ZM241.908 104.586C237.611 104.586 234.115 103.18 231.42 100.367C228.725 97.5352 227.377 93.7559 227.377 89.0293V88.0332C227.377 84.8887 227.973 82.0859 229.164 79.625C230.375 77.1445 232.055 75.2109 234.203 73.8242C236.371 72.418 238.715 71.7148 241.234 71.7148C245.355 71.7148 248.559 73.0723 250.844 75.7871C253.129 78.502 254.271 82.3887 254.271 87.4473V89.7031H232.797C232.875 92.8281 233.783 95.3574 235.521 97.291C237.279 99.2051 239.506 100.162 242.201 100.162C244.115 100.162 245.736 99.7715 247.064 98.9902C248.393 98.209 249.555 97.1738 250.551 95.8848L253.861 98.4629C251.205 102.545 247.221 104.586 241.908 104.586ZM241.234 76.168C239.047 76.168 237.211 76.9688 235.727 78.5703C234.242 80.1523 233.324 82.3789 232.973 85.25H248.852V84.8398C248.695 82.0859 247.953 79.957 246.625 78.4531C245.297 76.9297 243.5 76.168 241.234 76.168ZM287.406 88.502C287.406 93.3457 286.293 97.2422 284.066 100.191C281.84 103.121 278.852 104.586 275.102 104.586C271.098 104.586 268.002 103.17 265.814 100.338L265.551 104H260.57V59H265.99V75.7871C268.178 73.0723 271.195 71.7148 275.043 71.7148C278.891 71.7148 281.908 73.1699 284.096 76.0801C286.303 78.9902 287.406 82.9746 287.406 88.0332V88.502ZM281.986 87.8867C281.986 84.1953 281.273 81.3438 279.848 79.332C278.422 77.3203 276.371 76.3145 273.695 76.3145C270.121 76.3145 267.553 77.9746 265.99 81.2949V95.0059C267.65 98.3262 270.238 99.9863 273.754 99.9863C276.352 99.9863 278.373 98.9805 279.818 96.9688C281.264 94.957 281.986 91.9297 281.986 87.8867ZM307.826 87.8867C307.826 83.0234 308.979 79.1172 311.283 76.168C313.588 73.1992 316.605 71.7148 320.336 71.7148C324.047 71.7148 326.986 72.9844 329.154 75.5234V59H334.574V104H329.594L329.33 100.602C327.162 103.258 324.145 104.586 320.277 104.586C316.605 104.586 313.607 103.082 311.283 100.074C308.979 97.0664 307.826 93.1406 307.826 88.2969V87.8867ZM313.246 88.502C313.246 92.0957 313.988 94.9082 315.473 96.9395C316.957 98.9707 319.008 99.9863 321.625 99.9863C325.062 99.9863 327.572 98.4434 329.154 95.3574V80.7969C327.533 77.8086 325.043 76.3145 321.684 76.3145C319.027 76.3145 316.957 77.3398 315.473 79.3906C313.988 81.4414 313.246 84.4785 313.246 88.502ZM356.166 104.586C351.869 104.586 348.373 103.18 345.678 100.367C342.982 97.5352 341.635 93.7559 341.635 89.0293V88.0332C341.635 84.8887 342.23 82.0859 343.422 79.625C344.633 77.1445 346.312 75.2109 348.461 73.8242C350.629 72.418 352.973 71.7148 355.492 71.7148C359.613 71.7148 362.816 73.0723 365.102 75.7871C367.387 78.502 368.529 82.3887 368.529 87.4473V89.7031H347.055C347.133 92.8281 348.041 95.3574 349.779 97.291C351.537 99.2051 353.764 100.162 356.459 100.162C358.373 100.162 359.994 99.7715 361.322 98.9902C362.65 98.209 363.812 97.1738 364.809 95.8848L368.119 98.4629C365.463 102.545 361.479 104.586 356.166 104.586ZM355.492 76.168C353.305 76.168 351.469 76.9688 349.984 78.5703C348.5 80.1523 347.582 82.3789 347.23 85.25H363.109V84.8398C362.953 82.0859 362.211 79.957 360.883 78.4531C359.555 76.9297 357.758 76.168 355.492 76.168ZM408.432 61.3438H414.086V91.5488C414.086 95.6309 412.855 98.8242 410.395 101.129C407.953 103.434 404.691 104.586 400.609 104.586C396.371 104.586 393.07 103.502 390.707 101.334C388.344 99.166 387.162 96.1289 387.162 92.2227H392.787C392.787 94.6641 393.451 96.5684 394.779 97.9355C396.127 99.3027 398.07 99.9863 400.609 99.9863C402.934 99.9863 404.809 99.2539 406.234 97.7891C407.68 96.3242 408.412 94.2734 408.432 91.6367V61.3438ZM421.381 87.8574C421.381 84.752 421.986 81.959 423.197 79.4785C424.428 76.998 426.127 75.084 428.295 73.7363C430.482 72.3887 432.973 71.7148 435.766 71.7148C440.082 71.7148 443.568 73.209 446.225 76.1973C448.9 79.1855 450.238 83.1602 450.238 88.1211V88.502C450.238 91.5879 449.643 94.3613 448.451 96.8223C447.279 99.2637 445.59 101.168 443.383 102.535C441.195 103.902 438.676 104.586 435.824 104.586C431.527 104.586 428.041 103.092 425.365 100.104C422.709 97.1152 421.381 93.1602 421.381 88.2383V87.8574ZM426.83 88.502C426.83 92.0176 427.641 94.8398 429.262 96.9688C430.902 99.0977 433.09 100.162 435.824 100.162C438.578 100.162 440.766 99.0879 442.387 96.9395C444.008 94.7715 444.818 91.7441 444.818 87.8574C444.818 84.3809 443.988 81.5684 442.328 79.4199C440.688 77.252 438.5 76.168 435.766 76.168C433.09 76.168 430.932 77.2324 429.291 79.3613C427.65 81.4902 426.83 84.5371 426.83 88.502ZM470.189 104.586C465.893 104.586 462.396 103.18 459.701 100.367C457.006 97.5352 455.658 93.7559 455.658 89.0293V88.0332C455.658 84.8887 456.254 82.0859 457.445 79.625C458.656 77.1445 460.336 75.2109 462.484 73.8242C464.652 72.418 466.996 71.7148 469.516 71.7148C473.637 71.7148 476.84 73.0723 479.125 75.7871C481.41 78.502 482.553 82.3887 482.553 87.4473V89.7031H461.078C461.156 92.8281 462.064 95.3574 463.803 97.291C465.561 99.2051 467.787 100.162 470.482 100.162C472.396 100.162 474.018 99.7715 475.346 98.9902C476.674 98.209 477.836 97.1738 478.832 95.8848L482.143 98.4629C479.486 102.545 475.502 104.586 470.189 104.586ZM469.516 76.168C467.328 76.168 465.492 76.9688 464.008 78.5703C462.523 80.1523 461.605 82.3789 461.254 85.25H477.133V84.8398C476.977 82.0859 476.234 79.957 474.906 78.4531C473.578 76.9297 471.781 76.168 469.516 76.168ZM494.74 104H489.32V59H494.74V104ZM550.551 90.4648C550.023 94.9766 548.354 98.4629 545.541 100.924C542.748 103.365 539.027 104.586 534.379 104.586C529.34 104.586 525.297 102.779 522.25 99.166C519.223 95.5527 517.709 90.7188 517.709 84.6641V80.5625C517.709 76.5977 518.412 73.1113 519.818 70.1035C521.244 67.0957 523.256 64.791 525.854 63.1895C528.451 61.5684 531.459 60.7578 534.877 60.7578C539.408 60.7578 543.041 62.0273 545.775 64.5664C548.51 67.0859 550.102 70.582 550.551 75.0547H544.896C544.408 71.6562 543.344 69.1953 541.703 67.6719C540.082 66.1484 537.807 65.3867 534.877 65.3867C531.283 65.3867 528.461 66.7148 526.41 69.3711C524.379 72.0273 523.363 75.8066 523.363 80.709V84.8398C523.363 89.4688 524.33 93.1504 526.264 95.8848C528.197 98.6191 530.902 99.9863 534.379 99.9863C537.504 99.9863 539.896 99.2832 541.557 97.877C543.236 96.4512 544.35 93.9805 544.896 90.4648H550.551ZM562.826 76.1387C565.229 73.1895 568.354 71.7148 572.201 71.7148C578.9 71.7148 582.279 75.4941 582.338 83.0527V104H576.918V83.0234C576.898 80.7383 576.371 79.0488 575.336 77.9551C574.32 76.8613 572.729 76.3145 570.561 76.3145C568.803 76.3145 567.26 76.7832 565.932 77.7207C564.604 78.6582 563.568 79.8887 562.826 81.4121V104H557.406V59H562.826V76.1387ZM610.023 104C609.711 103.375 609.457 102.262 609.262 100.66C606.742 103.277 603.734 104.586 600.238 104.586C597.113 104.586 594.545 103.707 592.533 101.949C590.541 100.172 589.545 97.9258 589.545 95.2109C589.545 91.9102 590.795 89.3516 593.295 87.5352C595.814 85.6992 599.35 84.7812 603.9 84.7812H609.174V82.291C609.174 80.3965 608.607 78.8926 607.475 77.7793C606.342 76.6465 604.672 76.0801 602.465 76.0801C600.531 76.0801 598.91 76.5684 597.602 77.5449C596.293 78.5215 595.639 79.7031 595.639 81.0898H590.189C590.189 79.5078 590.746 77.9844 591.859 76.5195C592.992 75.0352 594.516 73.8633 596.43 73.0039C598.363 72.1445 600.482 71.7148 602.787 71.7148C606.439 71.7148 609.301 72.6328 611.371 74.4688C613.441 76.2852 614.516 78.7949 614.594 81.998V96.5879C614.594 99.498 614.965 101.812 615.707 103.531V104H610.023ZM601.029 99.8691C602.729 99.8691 604.34 99.4297 605.863 98.5508C607.387 97.6719 608.49 96.5293 609.174 95.123V88.6191H604.926C598.285 88.6191 594.965 90.5625 594.965 94.4492C594.965 96.1484 595.531 97.4766 596.664 98.4336C597.797 99.3906 599.252 99.8691 601.029 99.8691ZM633.08 96.6465L640.932 72.3008H646.469L635.102 104H630.971L619.486 72.3008H625.023L633.08 96.6465ZM664.428 104.586C660.131 104.586 656.635 103.18 653.939 100.367C651.244 97.5352 649.896 93.7559 649.896 89.0293V88.0332C649.896 84.8887 650.492 82.0859 651.684 79.625C652.895 77.1445 654.574 75.2109 656.723 73.8242C658.891 72.418 661.234 71.7148 663.754 71.7148C667.875 71.7148 671.078 73.0723 673.363 75.7871C675.648 78.502 676.791 82.3887 676.791 87.4473V89.7031H655.316C655.395 92.8281 656.303 95.3574 658.041 97.291C659.799 99.2051 662.025 100.162 664.721 100.162C666.635 100.162 668.256 99.7715 669.584 98.9902C670.912 98.209 672.074 97.1738 673.07 95.8848L676.381 98.4629C673.725 102.545 669.74 104.586 664.428 104.586ZM663.754 76.168C661.566 76.168 659.73 76.9688 658.246 78.5703C656.762 80.1523 655.844 82.3789 655.492 85.25H671.371V84.8398C671.215 82.0859 670.473 79.957 669.145 78.4531C667.816 76.9297 666.02 76.168 663.754 76.168ZM701.547 95.5918C701.547 94.127 700.99 92.9941 699.877 92.1934C698.783 91.373 696.859 90.6699 694.105 90.084C691.371 89.498 689.193 88.7949 687.572 87.9746C685.971 87.1543 684.779 86.1777 683.998 85.0449C683.236 83.9121 682.855 82.5645 682.855 81.002C682.855 78.4043 683.949 76.207 686.137 74.4102C688.344 72.6133 691.156 71.7148 694.574 71.7148C698.168 71.7148 701.078 72.6426 703.305 74.498C705.551 76.3535 706.674 78.7266 706.674 81.6172H701.225C701.225 80.1328 700.59 78.8535 699.32 77.7793C698.07 76.7051 696.488 76.168 694.574 76.168C692.602 76.168 691.059 76.5977 689.945 77.457C688.832 78.3164 688.275 79.4395 688.275 80.8262C688.275 82.1348 688.793 83.1211 689.828 83.7852C690.863 84.4492 692.729 85.084 695.424 85.6895C698.139 86.2949 700.336 87.0176 702.016 87.8574C703.695 88.6973 704.936 89.7129 705.736 90.9043C706.557 92.0762 706.967 93.5117 706.967 95.2109C706.967 98.043 705.834 100.318 703.568 102.037C701.303 103.736 698.363 104.586 694.75 104.586C692.211 104.586 689.965 104.137 688.012 103.238C686.059 102.34 684.525 101.09 683.412 99.4883C682.318 97.8672 681.771 96.1191 681.771 94.2441H687.191C687.289 96.0605 688.012 97.5059 689.359 98.5801C690.727 99.6348 692.523 100.162 694.75 100.162C696.801 100.162 698.441 99.752 699.672 98.9316C700.922 98.0918 701.547 96.9785 701.547 95.5918Z" fill="black"/>
<path d="M82.3281 393.465C81.8008 397.977 80.1309 401.463 77.3184 403.924C74.5254 406.365 70.8047 407.586 66.1562 407.586C61.1172 407.586 57.0742 405.779 54.0273 402.166C51 398.553 49.4863 393.719 49.4863 387.664V383.562C49.4863 379.598 50.1895 376.111 51.5957 373.104C53.0215 370.096 55.0332 367.791 57.6309 366.189C60.2285 364.568 63.2363 363.758 66.6543 363.758C71.1855 363.758 74.8184 365.027 77.5527 367.566C80.2871 370.086 81.8789 373.582 82.3281 378.055H76.6738C76.1855 374.656 75.1211 372.195 73.4805 370.672C71.8594 369.148 69.584 368.387 66.6543 368.387C63.0605 368.387 60.2383 369.715 58.1875 372.371C56.1562 375.027 55.1406 378.807 55.1406 383.709V387.84C55.1406 392.469 56.1074 396.15 58.041 398.885C59.9746 401.619 62.6797 402.986 66.1562 402.986C69.2812 402.986 71.6738 402.283 73.334 400.877C75.0137 399.451 76.127 396.98 76.6738 393.465H82.3281ZM87.748 390.857C87.748 387.752 88.3535 384.959 89.5645 382.479C90.7949 379.998 92.4941 378.084 94.6621 376.736C96.8496 375.389 99.3398 374.715 102.133 374.715C106.449 374.715 109.936 376.209 112.592 379.197C115.268 382.186 116.605 386.16 116.605 391.121V391.502C116.605 394.588 116.01 397.361 114.818 399.822C113.646 402.264 111.957 404.168 109.75 405.535C107.562 406.902 105.043 407.586 102.191 407.586C97.8945 407.586 94.4082 406.092 91.7324 403.104C89.0762 400.115 87.748 396.16 87.748 391.238V390.857ZM93.1973 391.502C93.1973 395.018 94.0078 397.84 95.6289 399.969C97.2695 402.098 99.457 403.162 102.191 403.162C104.945 403.162 107.133 402.088 108.754 399.939C110.375 397.771 111.186 394.744 111.186 390.857C111.186 387.381 110.355 384.568 108.695 382.42C107.055 380.252 104.867 379.168 102.133 379.168C99.457 379.168 97.2988 380.232 95.6582 382.361C94.0176 384.49 93.1973 387.537 93.1973 391.502ZM128.529 375.301L128.705 379.285C131.127 376.238 134.291 374.715 138.197 374.715C144.896 374.715 148.275 378.494 148.334 386.053V407H142.914V386.023C142.895 383.738 142.367 382.049 141.332 380.955C140.316 379.861 138.725 379.314 136.557 379.314C134.799 379.314 133.256 379.783 131.928 380.721C130.6 381.658 129.564 382.889 128.822 384.412V407H123.402V375.301H128.529ZM163.861 367.625V375.301H169.779V379.49H163.861V399.148C163.861 400.418 164.125 401.375 164.652 402.02C165.18 402.645 166.078 402.957 167.348 402.957C167.973 402.957 168.832 402.84 169.926 402.605V407C168.5 407.391 167.113 407.586 165.766 407.586C163.344 407.586 161.518 406.854 160.287 405.389C159.057 403.924 158.441 401.844 158.441 399.148V379.49H152.67V375.301H158.441V367.625H163.861ZM189.291 407.586C184.994 407.586 181.498 406.18 178.803 403.367C176.107 400.535 174.76 396.756 174.76 392.029V391.033C174.76 387.889 175.355 385.086 176.547 382.625C177.758 380.145 179.438 378.211 181.586 376.824C183.754 375.418 186.098 374.715 188.617 374.715C192.738 374.715 195.941 376.072 198.227 378.787C200.512 381.502 201.654 385.389 201.654 390.447V392.703H180.18C180.258 395.828 181.166 398.357 182.904 400.291C184.662 402.205 186.889 403.162 189.584 403.162C191.498 403.162 193.119 402.771 194.447 401.99C195.775 401.209 196.938 400.174 197.934 398.885L201.244 401.463C198.588 405.545 194.604 407.586 189.291 407.586ZM188.617 379.168C186.43 379.168 184.594 379.969 183.109 381.57C181.625 383.152 180.707 385.379 180.355 388.25H196.234V387.84C196.078 385.086 195.336 382.957 194.008 381.453C192.68 379.93 190.883 379.168 188.617 379.168ZM213.08 375.301L213.256 379.285C215.678 376.238 218.842 374.715 222.748 374.715C229.447 374.715 232.826 378.494 232.885 386.053V407H227.465V386.023C227.445 383.738 226.918 382.049 225.883 380.955C224.867 379.861 223.275 379.314 221.107 379.314C219.35 379.314 217.807 379.783 216.479 380.721C215.15 381.658 214.115 382.889 213.373 384.412V407H207.953V375.301H213.08ZM246.947 407H241.527V375.301H246.947V407ZM241.088 366.893C241.088 366.014 241.352 365.271 241.879 364.666C242.426 364.061 243.227 363.758 244.281 363.758C245.336 363.758 246.137 364.061 246.684 364.666C247.23 365.271 247.504 366.014 247.504 366.893C247.504 367.771 247.23 368.504 246.684 369.09C246.137 369.676 245.336 369.969 244.281 369.969C243.227 369.969 242.426 369.676 241.879 369.09C241.352 368.504 241.088 367.771 241.088 366.893ZM254.33 390.887C254.33 386.023 255.482 382.117 257.787 379.168C260.092 376.199 263.109 374.715 266.84 374.715C270.551 374.715 273.49 375.984 275.658 378.523V362H281.078V407H276.098L275.834 403.602C273.666 406.258 270.648 407.586 266.781 407.586C263.109 407.586 260.111 406.082 257.787 403.074C255.482 400.066 254.33 396.141 254.33 391.297V390.887ZM259.75 391.502C259.75 395.096 260.492 397.908 261.977 399.939C263.461 401.971 265.512 402.986 268.129 402.986C271.566 402.986 274.076 401.443 275.658 398.357V383.797C274.037 380.809 271.547 379.314 268.188 379.314C265.531 379.314 263.461 380.34 261.977 382.391C260.492 384.441 259.75 387.479 259.75 391.502ZM288.08 390.857C288.08 387.752 288.686 384.959 289.896 382.479C291.127 379.998 292.826 378.084 294.994 376.736C297.182 375.389 299.672 374.715 302.465 374.715C306.781 374.715 310.268 376.209 312.924 379.197C315.6 382.186 316.938 386.16 316.938 391.121V391.502C316.938 394.588 316.342 397.361 315.15 399.822C313.979 402.264 312.289 404.168 310.082 405.535C307.895 406.902 305.375 407.586 302.523 407.586C298.227 407.586 294.74 406.092 292.064 403.104C289.408 400.115 288.08 396.16 288.08 391.238V390.857ZM293.529 391.502C293.529 395.018 294.34 397.84 295.961 399.969C297.602 402.098 299.789 403.162 302.523 403.162C305.277 403.162 307.465 402.088 309.086 399.939C310.707 397.771 311.518 394.744 311.518 390.857C311.518 387.381 310.688 384.568 309.027 382.42C307.387 380.252 305.199 379.168 302.465 379.168C299.789 379.168 297.631 380.232 295.99 382.361C294.35 384.49 293.529 387.537 293.529 391.502ZM358.188 407C357.875 406.375 357.621 405.262 357.426 403.66C354.906 406.277 351.898 407.586 348.402 407.586C345.277 407.586 342.709 406.707 340.697 404.949C338.705 403.172 337.709 400.926 337.709 398.211C337.709 394.91 338.959 392.352 341.459 390.535C343.979 388.699 347.514 387.781 352.064 387.781H357.338V385.291C357.338 383.396 356.771 381.893 355.639 380.779C354.506 379.646 352.836 379.08 350.629 379.08C348.695 379.08 347.074 379.568 345.766 380.545C344.457 381.521 343.803 382.703 343.803 384.09H338.354C338.354 382.508 338.91 380.984 340.023 379.52C341.156 378.035 342.68 376.863 344.594 376.004C346.527 375.145 348.646 374.715 350.951 374.715C354.604 374.715 357.465 375.633 359.535 377.469C361.605 379.285 362.68 381.795 362.758 384.998V399.588C362.758 402.498 363.129 404.812 363.871 406.531V407H358.188ZM349.193 402.869C350.893 402.869 352.504 402.43 354.027 401.551C355.551 400.672 356.654 399.529 357.338 398.123V391.619H353.09C346.449 391.619 343.129 393.562 343.129 397.449C343.129 399.148 343.695 400.477 344.828 401.434C345.961 402.391 347.416 402.869 349.193 402.869ZM383.969 403.162C385.902 403.162 387.592 402.576 389.037 401.404C390.482 400.232 391.283 398.768 391.439 397.01H396.566C396.469 398.826 395.844 400.555 394.691 402.195C393.539 403.836 391.996 405.145 390.062 406.121C388.148 407.098 386.117 407.586 383.969 407.586C379.652 407.586 376.215 406.15 373.656 403.279C371.117 400.389 369.848 396.443 369.848 391.443V390.535C369.848 387.449 370.414 384.705 371.547 382.303C372.68 379.9 374.301 378.035 376.41 376.707C378.539 375.379 381.049 374.715 383.939 374.715C387.494 374.715 390.443 375.779 392.787 377.908C395.15 380.037 396.41 382.801 396.566 386.199H391.439C391.283 384.148 390.502 382.469 389.096 381.16C387.709 379.832 385.99 379.168 383.939 379.168C381.186 379.168 379.047 380.164 377.523 382.156C376.02 384.129 375.268 386.99 375.268 390.74V391.766C375.268 395.418 376.02 398.23 377.523 400.203C379.027 402.176 381.176 403.162 383.969 403.162ZM422.23 407C421.918 406.375 421.664 405.262 421.469 403.66C418.949 406.277 415.941 407.586 412.445 407.586C409.32 407.586 406.752 406.707 404.74 404.949C402.748 403.172 401.752 400.926 401.752 398.211C401.752 394.91 403.002 392.352 405.502 390.535C408.021 388.699 411.557 387.781 416.107 387.781H421.381V385.291C421.381 383.396 420.814 381.893 419.682 380.779C418.549 379.646 416.879 379.08 414.672 379.08C412.738 379.08 411.117 379.568 409.809 380.545C408.5 381.521 407.846 382.703 407.846 384.09H402.396C402.396 382.508 402.953 380.984 404.066 379.52C405.199 378.035 406.723 376.863 408.637 376.004C410.57 375.145 412.689 374.715 414.994 374.715C418.646 374.715 421.508 375.633 423.578 377.469C425.648 379.285 426.723 381.795 426.801 384.998V399.588C426.801 402.498 427.172 404.812 427.914 406.531V407H422.23ZM413.236 402.869C414.936 402.869 416.547 402.43 418.07 401.551C419.594 400.672 420.697 399.529 421.381 398.123V391.619H417.133C410.492 391.619 407.172 393.562 407.172 397.449C407.172 399.148 407.738 400.477 408.871 401.434C410.004 402.391 411.459 402.869 413.236 402.869ZM418.246 362H424.809L416.957 370.613H412.592L418.246 362Z" fill="black"/>
<path d="M66.5859 144.668C66.5859 147.884 65.8503 150.475 64.3789 152.441C62.9076 154.408 60.9154 155.391 58.4023 155.391C55.8372 155.391 53.819 154.577 52.3477 152.949V163.125H48.7344V133.867H52.0352L52.2109 136.211C53.6823 134.388 55.7266 133.477 58.3438 133.477C60.8828 133.477 62.888 134.434 64.3594 136.348C65.8438 138.262 66.5859 140.924 66.5859 144.336V144.668ZM62.9727 144.258C62.9727 141.875 62.4648 139.993 61.4492 138.613C60.4336 137.233 59.0404 136.543 57.2695 136.543C55.082 136.543 53.4414 137.513 52.3477 139.453V149.551C53.4284 151.478 55.082 152.441 57.3086 152.441C59.0404 152.441 60.4141 151.758 61.4297 150.391C62.4583 149.01 62.9727 146.966 62.9727 144.258ZM84.2422 155C84.0339 154.583 83.8646 153.841 83.7344 152.773C82.0547 154.518 80.0495 155.391 77.7188 155.391C75.6354 155.391 73.9232 154.805 72.582 153.633C71.2539 152.448 70.5898 150.951 70.5898 149.141C70.5898 146.94 71.4232 145.234 73.0898 144.023C74.7695 142.799 77.1263 142.188 80.1602 142.188H83.6758V140.527C83.6758 139.264 83.2982 138.262 82.543 137.52C81.7878 136.764 80.6745 136.387 79.2031 136.387C77.9141 136.387 76.8333 136.712 75.9609 137.363C75.0885 138.014 74.6523 138.802 74.6523 139.727H71.0195C71.0195 138.672 71.3906 137.656 72.1328 136.68C72.888 135.69 73.9036 134.909 75.1797 134.336C76.4688 133.763 77.8815 133.477 79.418 133.477C81.8529 133.477 83.7604 134.089 85.1406 135.312C86.5208 136.523 87.237 138.197 87.2891 140.332V150.059C87.2891 151.999 87.5365 153.542 88.0312 154.688V155H84.2422ZM78.2461 152.246C79.3789 152.246 80.4531 151.953 81.4688 151.367C82.4844 150.781 83.2201 150.02 83.6758 149.082V144.746H80.8438C76.4167 144.746 74.2031 146.042 74.2031 148.633C74.2031 149.766 74.5807 150.651 75.3359 151.289C76.0911 151.927 77.0612 152.246 78.2461 152.246ZM103.168 137.109C102.621 137.018 102.029 136.973 101.391 136.973C99.0208 136.973 97.4128 137.982 96.5664 140V155H92.9531V133.867H96.4688L96.5273 136.309C97.7122 134.421 99.3919 133.477 101.566 133.477C102.27 133.477 102.803 133.568 103.168 133.75V137.109ZM118.773 155C118.565 154.583 118.396 153.841 118.266 152.773C116.586 154.518 114.581 155.391 112.25 155.391C110.167 155.391 108.454 154.805 107.113 153.633C105.785 152.448 105.121 150.951 105.121 149.141C105.121 146.94 105.954 145.234 107.621 144.023C109.301 142.799 111.658 142.188 114.691 142.188H118.207V140.527C118.207 139.264 117.829 138.262 117.074 137.52C116.319 136.764 115.206 136.387 113.734 136.387C112.445 136.387 111.365 136.712 110.492 137.363C109.62 138.014 109.184 138.802 109.184 139.727H105.551C105.551 138.672 105.922 137.656 106.664 136.68C107.419 135.69 108.435 134.909 109.711 134.336C111 133.763 112.413 133.477 113.949 133.477C116.384 133.477 118.292 134.089 119.672 135.312C121.052 136.523 121.768 138.197 121.82 140.332V150.059C121.82 151.999 122.068 153.542 122.562 154.688V155H118.773ZM112.777 152.246C113.91 152.246 114.984 151.953 116 151.367C117.016 150.781 117.751 150.02 118.207 149.082V144.746H115.375C110.948 144.746 108.734 146.042 108.734 148.633C108.734 149.766 109.112 150.651 109.867 151.289C110.622 151.927 111.592 152.246 112.777 152.246ZM146.176 155.391C143.311 155.391 140.98 154.453 139.184 152.578C137.387 150.69 136.488 148.171 136.488 145.02V144.355C136.488 142.259 136.885 140.391 137.68 138.75C138.487 137.096 139.607 135.807 141.039 134.883C142.484 133.945 144.047 133.477 145.727 133.477C148.474 133.477 150.609 134.382 152.133 136.191C153.656 138.001 154.418 140.592 154.418 143.965V145.469H140.102C140.154 147.552 140.759 149.238 141.918 150.527C143.09 151.803 144.574 152.441 146.371 152.441C147.647 152.441 148.728 152.181 149.613 151.66C150.499 151.139 151.273 150.449 151.938 149.59L154.145 151.309C152.374 154.03 149.717 155.391 146.176 155.391ZM145.727 136.445C144.268 136.445 143.044 136.979 142.055 138.047C141.065 139.102 140.453 140.586 140.219 142.5H150.805V142.227C150.701 140.391 150.206 138.971 149.32 137.969C148.435 136.953 147.237 136.445 145.727 136.445ZM162.543 155H158.93V125H162.543V155ZM186.742 152.441C188.031 152.441 189.158 152.051 190.121 151.27C191.085 150.488 191.618 149.512 191.723 148.34H195.141C195.076 149.551 194.659 150.703 193.891 151.797C193.122 152.891 192.094 153.763 190.805 154.414C189.529 155.065 188.174 155.391 186.742 155.391C183.865 155.391 181.573 154.434 179.867 152.52C178.174 150.592 177.328 147.962 177.328 144.629V144.023C177.328 141.966 177.706 140.137 178.461 138.535C179.216 136.934 180.297 135.69 181.703 134.805C183.122 133.919 184.796 133.477 186.723 133.477C189.092 133.477 191.059 134.186 192.621 135.605C194.197 137.025 195.036 138.867 195.141 141.133H191.723C191.618 139.766 191.098 138.646 190.16 137.773C189.236 136.888 188.09 136.445 186.723 136.445C184.887 136.445 183.461 137.109 182.445 138.438C181.443 139.753 180.941 141.66 180.941 144.16V144.844C180.941 147.279 181.443 149.154 182.445 150.469C183.448 151.784 184.88 152.441 186.742 152.441ZM212.25 152.91C210.844 154.564 208.78 155.391 206.059 155.391C203.806 155.391 202.087 154.74 200.902 153.438C199.73 152.122 199.138 150.182 199.125 147.617V133.867H202.738V147.52C202.738 150.723 204.04 152.324 206.645 152.324C209.405 152.324 211.241 151.296 212.152 149.238V133.867H215.766V155H212.328L212.25 152.91ZM231.488 137.109C230.941 137.018 230.349 136.973 229.711 136.973C227.341 136.973 225.733 137.982 224.887 140V155H221.273V133.867H224.789L224.848 136.309C226.033 134.421 227.712 133.477 229.887 133.477C230.59 133.477 231.124 133.568 231.488 133.75V137.109ZM247.133 149.395C247.133 148.418 246.762 147.663 246.02 147.129C245.29 146.582 244.008 146.113 242.172 145.723C240.349 145.332 238.897 144.863 237.816 144.316C236.749 143.77 235.954 143.118 235.434 142.363C234.926 141.608 234.672 140.71 234.672 139.668C234.672 137.936 235.401 136.471 236.859 135.273C238.331 134.076 240.206 133.477 242.484 133.477C244.88 133.477 246.82 134.095 248.305 135.332C249.802 136.569 250.551 138.151 250.551 140.078H246.918C246.918 139.089 246.495 138.236 245.648 137.52C244.815 136.803 243.76 136.445 242.484 136.445C241.169 136.445 240.141 136.732 239.398 137.305C238.656 137.878 238.285 138.626 238.285 139.551C238.285 140.423 238.63 141.081 239.32 141.523C240.01 141.966 241.254 142.389 243.051 142.793C244.861 143.197 246.326 143.678 247.445 144.238C248.565 144.798 249.392 145.475 249.926 146.27C250.473 147.051 250.746 148.008 250.746 149.141C250.746 151.029 249.991 152.546 248.48 153.691C246.97 154.824 245.01 155.391 242.602 155.391C240.909 155.391 239.411 155.091 238.109 154.492C236.807 153.893 235.785 153.06 235.043 151.992C234.314 150.911 233.949 149.746 233.949 148.496H237.562C237.628 149.707 238.109 150.671 239.008 151.387C239.919 152.09 241.117 152.441 242.602 152.441C243.969 152.441 245.062 152.168 245.883 151.621C246.716 151.061 247.133 150.319 247.133 149.395ZM254.496 144.238C254.496 142.168 254.9 140.306 255.707 138.652C256.527 136.999 257.66 135.723 259.105 134.824C260.564 133.926 262.224 133.477 264.086 133.477C266.964 133.477 269.288 134.473 271.059 136.465C272.842 138.457 273.734 141.107 273.734 144.414V144.668C273.734 146.725 273.337 148.574 272.543 150.215C271.762 151.842 270.635 153.112 269.164 154.023C267.706 154.935 266.026 155.391 264.125 155.391C261.26 155.391 258.936 154.395 257.152 152.402C255.382 150.41 254.496 147.773 254.496 144.492V144.238ZM258.129 144.668C258.129 147.012 258.669 148.893 259.75 150.312C260.844 151.732 262.302 152.441 264.125 152.441C265.961 152.441 267.419 151.725 268.5 150.293C269.581 148.848 270.121 146.829 270.121 144.238C270.121 141.921 269.568 140.046 268.461 138.613C267.367 137.168 265.909 136.445 264.086 136.445C262.302 136.445 260.863 137.155 259.77 138.574C258.676 139.993 258.129 142.025 258.129 144.668ZM287.309 144.258C287.309 141.016 288.077 138.411 289.613 136.445C291.15 134.466 293.161 133.477 295.648 133.477C298.122 133.477 300.082 134.323 301.527 136.016V125H305.141V155H301.82L301.645 152.734C300.199 154.505 298.188 155.391 295.609 155.391C293.161 155.391 291.163 154.388 289.613 152.383C288.077 150.378 287.309 147.76 287.309 144.531V144.258ZM290.922 144.668C290.922 147.064 291.417 148.939 292.406 150.293C293.396 151.647 294.763 152.324 296.508 152.324C298.799 152.324 300.473 151.296 301.527 149.238V139.531C300.447 137.539 298.786 136.543 296.547 136.543C294.776 136.543 293.396 137.227 292.406 138.594C291.417 139.961 290.922 141.986 290.922 144.668ZM319.535 155.391C316.671 155.391 314.34 154.453 312.543 152.578C310.746 150.69 309.848 148.171 309.848 145.02V144.355C309.848 142.259 310.245 140.391 311.039 138.75C311.846 137.096 312.966 135.807 314.398 134.883C315.844 133.945 317.406 133.477 319.086 133.477C321.833 133.477 323.969 134.382 325.492 136.191C327.016 138.001 327.777 140.592 327.777 143.965V145.469H313.461C313.513 147.552 314.118 149.238 315.277 150.527C316.449 151.803 317.934 152.441 319.73 152.441C321.007 152.441 322.087 152.181 322.973 151.66C323.858 151.139 324.633 150.449 325.297 149.59L327.504 151.309C325.733 154.03 323.077 155.391 319.535 155.391ZM319.086 136.445C317.628 136.445 316.404 136.979 315.414 138.047C314.424 139.102 313.812 140.586 313.578 142.5H324.164V142.227C324.06 140.391 323.565 138.971 322.68 137.969C321.794 136.953 320.596 136.445 319.086 136.445ZM342.465 155V126.562H350.492C352.966 126.562 355.154 127.109 357.055 128.203C358.956 129.297 360.421 130.853 361.449 132.871C362.491 134.889 363.018 137.207 363.031 139.824V141.641C363.031 144.323 362.51 146.673 361.469 148.691C360.44 150.71 358.962 152.259 357.035 153.34C355.121 154.421 352.888 154.974 350.336 155H342.465ZM346.215 129.648V151.934H350.16C353.051 151.934 355.297 151.035 356.898 149.238C358.513 147.441 359.32 144.883 359.32 141.562V139.902C359.32 136.673 358.559 134.167 357.035 132.383C355.525 130.586 353.376 129.674 350.59 129.648H346.215ZM376.918 155.391C374.053 155.391 371.723 154.453 369.926 152.578C368.129 150.69 367.23 148.171 367.23 145.02V144.355C367.23 142.259 367.628 140.391 368.422 138.75C369.229 137.096 370.349 135.807 371.781 134.883C373.227 133.945 374.789 133.477 376.469 133.477C379.216 133.477 381.352 134.382 382.875 136.191C384.398 138.001 385.16 140.592 385.16 143.965V145.469H370.844C370.896 147.552 371.501 149.238 372.66 150.527C373.832 151.803 375.316 152.441 377.113 152.441C378.389 152.441 379.47 152.181 380.355 151.66C381.241 151.139 382.016 150.449 382.68 149.59L384.887 151.309C383.116 154.03 380.46 155.391 376.918 155.391ZM376.469 136.445C375.01 136.445 373.786 136.979 372.797 138.047C371.807 139.102 371.195 140.586 370.961 142.5H381.547V142.227C381.443 140.391 380.948 138.971 380.062 137.969C379.177 136.953 377.979 136.445 376.469 136.445ZM401.664 149.395C401.664 148.418 401.293 147.663 400.551 147.129C399.822 146.582 398.539 146.113 396.703 145.723C394.88 145.332 393.428 144.863 392.348 144.316C391.28 143.77 390.486 143.118 389.965 142.363C389.457 141.608 389.203 140.71 389.203 139.668C389.203 137.936 389.932 136.471 391.391 135.273C392.862 134.076 394.737 133.477 397.016 133.477C399.411 133.477 401.352 134.095 402.836 135.332C404.333 136.569 405.082 138.151 405.082 140.078H401.449C401.449 139.089 401.026 138.236 400.18 137.52C399.346 136.803 398.292 136.445 397.016 136.445C395.701 136.445 394.672 136.732 393.93 137.305C393.188 137.878 392.816 138.626 392.816 139.551C392.816 140.423 393.161 141.081 393.852 141.523C394.542 141.966 395.785 142.389 397.582 142.793C399.392 143.197 400.857 143.678 401.977 144.238C403.096 144.798 403.923 145.475 404.457 146.27C405.004 147.051 405.277 148.008 405.277 149.141C405.277 151.029 404.522 152.546 403.012 153.691C401.501 154.824 399.542 155.391 397.133 155.391C395.44 155.391 393.943 155.091 392.641 154.492C391.339 153.893 390.316 153.06 389.574 151.992C388.845 150.911 388.48 149.746 388.48 148.496H392.094C392.159 149.707 392.641 150.671 393.539 151.387C394.451 152.09 395.648 152.441 397.133 152.441C398.5 152.441 399.594 152.168 400.414 151.621C401.247 151.061 401.664 150.319 401.664 149.395ZM423.031 155C422.823 154.583 422.654 153.841 422.523 152.773C420.844 154.518 418.839 155.391 416.508 155.391C414.424 155.391 412.712 154.805 411.371 153.633C410.043 152.448 409.379 150.951 409.379 149.141C409.379 146.94 410.212 145.234 411.879 144.023C413.559 142.799 415.915 142.188 418.949 142.188H422.465V140.527C422.465 139.264 422.087 138.262 421.332 137.52C420.577 136.764 419.464 136.387 417.992 136.387C416.703 136.387 415.622 136.712 414.75 137.363C413.878 138.014 413.441 138.802 413.441 139.727H409.809C409.809 138.672 410.18 137.656 410.922 136.68C411.677 135.69 412.693 134.909 413.969 134.336C415.258 133.763 416.671 133.477 418.207 133.477C420.642 133.477 422.549 134.089 423.93 135.312C425.31 136.523 426.026 138.197 426.078 140.332V150.059C426.078 151.999 426.326 153.542 426.82 154.688V155H423.031ZM417.035 152.246C418.168 152.246 419.242 151.953 420.258 151.367C421.273 150.781 422.009 150.02 422.465 149.082V144.746H419.633C415.206 144.746 412.992 146.042 412.992 148.633C412.992 149.766 413.37 150.651 414.125 151.289C414.88 151.927 415.85 152.246 417.035 152.246ZM441.957 137.109C441.41 137.018 440.818 136.973 440.18 136.973C437.81 136.973 436.202 137.982 435.355 140V155H431.742V133.867H435.258L435.316 136.309C436.501 134.421 438.181 133.477 440.355 133.477C441.059 133.477 441.592 133.568 441.957 133.75V137.109ZM455.512 137.109C454.965 137.018 454.372 136.973 453.734 136.973C451.365 136.973 449.757 137.982 448.91 140V155H445.297V133.867H448.812L448.871 136.309C450.056 134.421 451.736 133.477 453.91 133.477C454.613 133.477 455.147 133.568 455.512 133.75V137.109ZM457.504 144.238C457.504 142.168 457.908 140.306 458.715 138.652C459.535 136.999 460.668 135.723 462.113 134.824C463.572 133.926 465.232 133.477 467.094 133.477C469.971 133.477 472.296 134.473 474.066 136.465C475.85 138.457 476.742 141.107 476.742 144.414V144.668C476.742 146.725 476.345 148.574 475.551 150.215C474.77 151.842 473.643 153.112 472.172 154.023C470.714 154.935 469.034 155.391 467.133 155.391C464.268 155.391 461.944 154.395 460.16 152.402C458.389 150.41 457.504 147.773 457.504 144.492V144.238ZM461.137 144.668C461.137 147.012 461.677 148.893 462.758 150.312C463.852 151.732 465.31 152.441 467.133 152.441C468.969 152.441 470.427 151.725 471.508 150.293C472.589 148.848 473.129 146.829 473.129 144.238C473.129 141.921 472.576 140.046 471.469 138.613C470.375 137.168 468.917 136.445 467.094 136.445C465.31 136.445 463.871 137.155 462.777 138.574C461.684 139.993 461.137 142.025 461.137 144.668ZM485.199 155H481.586V125H485.199V155ZM494.926 155H491.312V125H494.926V155ZM499.77 144.238C499.77 142.168 500.173 140.306 500.98 138.652C501.801 136.999 502.934 135.723 504.379 134.824C505.837 133.926 507.497 133.477 509.359 133.477C512.237 133.477 514.561 134.473 516.332 136.465C518.116 138.457 519.008 141.107 519.008 144.414V144.668C519.008 146.725 518.611 148.574 517.816 150.215C517.035 151.842 515.909 153.112 514.438 154.023C512.979 154.935 511.299 155.391 509.398 155.391C506.534 155.391 504.21 154.395 502.426 152.402C500.655 150.41 499.77 147.773 499.77 144.492V144.238ZM503.402 144.668C503.402 147.012 503.943 148.893 505.023 150.312C506.117 151.732 507.576 152.441 509.398 152.441C511.234 152.441 512.693 151.725 513.773 150.293C514.854 148.848 515.395 146.829 515.395 144.238C515.395 141.921 514.841 140.046 513.734 138.613C512.641 137.168 511.182 136.445 509.359 136.445C507.576 136.445 506.137 137.155 505.043 138.574C503.949 139.993 503.402 142.025 503.402 144.668ZM532.582 144.258C532.582 141.016 533.35 138.411 534.887 136.445C536.423 134.466 538.435 133.477 540.922 133.477C543.396 133.477 545.355 134.323 546.801 136.016V125H550.414V155H547.094L546.918 152.734C545.473 154.505 543.461 155.391 540.883 155.391C538.435 155.391 536.436 154.388 534.887 152.383C533.35 150.378 532.582 147.76 532.582 144.531V144.258ZM536.195 144.668C536.195 147.064 536.69 148.939 537.68 150.293C538.669 151.647 540.036 152.324 541.781 152.324C544.073 152.324 545.746 151.296 546.801 149.238V139.531C545.72 137.539 544.06 136.543 541.82 136.543C540.049 136.543 538.669 137.227 537.68 138.594C536.69 139.961 536.195 141.986 536.195 144.668ZM564.809 155.391C561.944 155.391 559.613 154.453 557.816 152.578C556.02 150.69 555.121 148.171 555.121 145.02V144.355C555.121 142.259 555.518 140.391 556.312 138.75C557.12 137.096 558.24 135.807 559.672 134.883C561.117 133.945 562.68 133.477 564.359 133.477C567.107 133.477 569.242 134.382 570.766 136.191C572.289 138.001 573.051 140.592 573.051 143.965V145.469H558.734C558.786 147.552 559.392 149.238 560.551 150.527C561.723 151.803 563.207 152.441 565.004 152.441C566.28 152.441 567.361 152.181 568.246 151.66C569.132 151.139 569.906 150.449 570.57 149.59L572.777 151.309C571.007 154.03 568.35 155.391 564.809 155.391ZM564.359 136.445C562.901 136.445 561.677 136.979 560.688 138.047C559.698 139.102 559.086 140.586 558.852 142.5H569.438V142.227C569.333 140.391 568.839 138.971 567.953 137.969C567.068 136.953 565.87 136.445 564.359 136.445ZM600.219 155C600.01 154.583 599.841 153.841 599.711 152.773C598.031 154.518 596.026 155.391 593.695 155.391C591.612 155.391 589.9 154.805 588.559 153.633C587.23 152.448 586.566 150.951 586.566 149.141C586.566 146.94 587.4 145.234 589.066 144.023C590.746 142.799 593.103 142.188 596.137 142.188H599.652V140.527C599.652 139.264 599.275 138.262 598.52 137.52C597.764 136.764 596.651 136.387 595.18 136.387C593.891 136.387 592.81 136.712 591.938 137.363C591.065 138.014 590.629 138.802 590.629 139.727H586.996C586.996 138.672 587.367 137.656 588.109 136.68C588.865 135.69 589.88 134.909 591.156 134.336C592.445 133.763 593.858 133.477 595.395 133.477C597.829 133.477 599.737 134.089 601.117 135.312C602.497 136.523 603.214 138.197 603.266 140.332V150.059C603.266 151.999 603.513 153.542 604.008 154.688V155H600.219ZM594.223 152.246C595.355 152.246 596.43 151.953 597.445 151.367C598.461 150.781 599.197 150.02 599.652 149.082V144.746H596.82C592.393 144.746 590.18 146.042 590.18 148.633C590.18 149.766 590.557 150.651 591.312 151.289C592.068 151.927 593.038 152.246 594.223 152.246ZM626.781 144.668C626.781 147.884 626.046 150.475 624.574 152.441C623.103 154.408 621.111 155.391 618.598 155.391C616.033 155.391 614.014 154.577 612.543 152.949V163.125H608.93V133.867H612.23L612.406 136.211C613.878 134.388 615.922 133.477 618.539 133.477C621.078 133.477 623.083 134.434 624.555 136.348C626.039 138.262 626.781 140.924 626.781 144.336V144.668ZM623.168 144.258C623.168 141.875 622.66 139.993 621.645 138.613C620.629 137.233 619.236 136.543 617.465 136.543C615.277 136.543 613.637 137.513 612.543 139.453V149.551C613.624 151.478 615.277 152.441 617.504 152.441C619.236 152.441 620.609 151.758 621.625 150.391C622.654 149.01 623.168 146.966 623.168 144.258ZM635.316 155H631.703V125H635.316V155ZM645.043 155H641.43V133.867H645.043V155ZM641.137 128.262C641.137 127.676 641.312 127.181 641.664 126.777C642.029 126.374 642.562 126.172 643.266 126.172C643.969 126.172 644.503 126.374 644.867 126.777C645.232 127.181 645.414 127.676 645.414 128.262C645.414 128.848 645.232 129.336 644.867 129.727C644.503 130.117 643.969 130.312 643.266 130.312C642.562 130.312 642.029 130.117 641.664 129.727C641.312 129.336 641.137 128.848 641.137 128.262ZM659.32 152.441C660.609 152.441 661.736 152.051 662.699 151.27C663.663 150.488 664.197 149.512 664.301 148.34H667.719C667.654 149.551 667.237 150.703 666.469 151.797C665.701 152.891 664.672 153.763 663.383 154.414C662.107 155.065 660.753 155.391 659.32 155.391C656.443 155.391 654.151 154.434 652.445 152.52C650.753 150.592 649.906 147.962 649.906 144.629V144.023C649.906 141.966 650.284 140.137 651.039 138.535C651.794 136.934 652.875 135.69 654.281 134.805C655.701 133.919 657.374 133.477 659.301 133.477C661.671 133.477 663.637 134.186 665.199 135.605C666.775 137.025 667.615 138.867 667.719 141.133H664.301C664.197 139.766 663.676 138.646 662.738 137.773C661.814 136.888 660.668 136.445 659.301 136.445C657.465 136.445 656.039 137.109 655.023 138.438C654.021 139.753 653.52 141.66 653.52 144.16V144.844C653.52 147.279 654.021 149.154 655.023 150.469C656.026 151.784 657.458 152.441 659.32 152.441ZM684.828 155C684.62 154.583 684.451 153.841 684.32 152.773C682.641 154.518 680.635 155.391 678.305 155.391C676.221 155.391 674.509 154.805 673.168 153.633C671.84 152.448 671.176 150.951 671.176 149.141C671.176 146.94 672.009 145.234 673.676 144.023C675.355 142.799 677.712 142.188 680.746 142.188H684.262V140.527C684.262 139.264 683.884 138.262 683.129 137.52C682.374 136.764 681.26 136.387 679.789 136.387C678.5 136.387 677.419 136.712 676.547 137.363C675.674 138.014 675.238 138.802 675.238 139.727H671.605C671.605 138.672 671.977 137.656 672.719 136.68C673.474 135.69 674.49 134.909 675.766 134.336C677.055 133.763 678.467 133.477 680.004 133.477C682.439 133.477 684.346 134.089 685.727 135.312C687.107 136.523 687.823 138.197 687.875 140.332V150.059C687.875 151.999 688.122 153.542 688.617 154.688V155H684.828ZM678.832 152.246C679.965 152.246 681.039 151.953 682.055 151.367C683.07 150.781 683.806 150.02 684.262 149.082V144.746H681.43C677.003 144.746 674.789 146.042 674.789 148.633C674.789 149.766 675.167 150.651 675.922 151.289C676.677 151.927 677.647 152.246 678.832 152.246ZM702.016 152.441C703.305 152.441 704.431 152.051 705.395 151.27C706.358 150.488 706.892 149.512 706.996 148.34H710.414C710.349 149.551 709.932 150.703 709.164 151.797C708.396 152.891 707.367 153.763 706.078 154.414C704.802 155.065 703.448 155.391 702.016 155.391C699.138 155.391 696.846 154.434 695.141 152.52C693.448 150.592 692.602 147.962 692.602 144.629V144.023C692.602 141.966 692.979 140.137 693.734 138.535C694.49 136.934 695.57 135.69 696.977 134.805C698.396 133.919 700.069 133.477 701.996 133.477C704.366 133.477 706.332 134.186 707.895 135.605C709.47 137.025 710.31 138.867 710.414 141.133H706.996C706.892 139.766 706.371 138.646 705.434 137.773C704.509 136.888 703.363 136.445 701.996 136.445C700.16 136.445 698.734 137.109 697.719 138.438C696.716 139.753 696.215 141.66 696.215 144.16V144.844C696.215 147.279 696.716 149.154 697.719 150.469C698.721 151.784 700.154 152.441 702.016 152.441ZM718.402 155H714.789V133.867H718.402V155ZM714.496 128.262C714.496 127.676 714.672 127.181 715.023 126.777C715.388 126.374 715.922 126.172 716.625 126.172C717.328 126.172 717.862 126.374 718.227 126.777C718.591 127.181 718.773 127.676 718.773 128.262C718.773 128.848 718.591 129.336 718.227 129.727C717.862 130.117 717.328 130.312 716.625 130.312C715.922 130.312 715.388 130.117 715.023 129.727C714.672 129.336 714.496 128.848 714.496 128.262ZM723.246 144.238C723.246 142.168 723.65 140.306 724.457 138.652C725.277 136.999 726.41 135.723 727.855 134.824C729.314 133.926 730.974 133.477 732.836 133.477C735.714 133.477 738.038 134.473 739.809 136.465C741.592 138.457 742.484 141.107 742.484 144.414V144.668C742.484 146.725 742.087 148.574 741.293 150.215C740.512 151.842 739.385 153.112 737.914 154.023C736.456 154.935 734.776 155.391 732.875 155.391C730.01 155.391 727.686 154.395 725.902 152.402C724.132 150.41 723.246 147.773 723.246 144.492V144.238ZM726.879 144.668C726.879 147.012 727.419 148.893 728.5 150.312C729.594 151.732 731.052 152.441 732.875 152.441C734.711 152.441 736.169 151.725 737.25 150.293C738.331 148.848 738.871 146.829 738.871 144.238C738.871 141.921 738.318 140.046 737.211 138.613C736.117 137.168 734.659 136.445 732.836 136.445C731.052 136.445 729.613 137.155 728.52 138.574C727.426 139.993 726.879 142.025 726.879 144.668ZM750.434 133.867L750.551 136.523C752.165 134.492 754.275 133.477 756.879 133.477C761.345 133.477 763.598 135.996 763.637 141.035V155H760.023V141.016C760.01 139.492 759.659 138.366 758.969 137.637C758.292 136.908 757.23 136.543 755.785 136.543C754.613 136.543 753.585 136.855 752.699 137.48C751.814 138.105 751.124 138.926 750.629 139.941V155H747.016V133.867H750.434ZM777.855 155.391C774.991 155.391 772.66 154.453 770.863 152.578C769.066 150.69 768.168 148.171 768.168 145.02V144.355C768.168 142.259 768.565 140.391 769.359 138.75C770.167 137.096 771.286 135.807 772.719 134.883C774.164 133.945 775.727 133.477 777.406 133.477C780.154 133.477 782.289 134.382 783.812 136.191C785.336 138.001 786.098 140.592 786.098 143.965V145.469H771.781C771.833 147.552 772.439 149.238 773.598 150.527C774.77 151.803 776.254 152.441 778.051 152.441C779.327 152.441 780.408 152.181 781.293 151.66C782.178 151.139 782.953 150.449 783.617 149.59L785.824 151.309C784.053 154.03 781.397 155.391 777.855 155.391ZM777.406 136.445C775.948 136.445 774.724 136.979 773.734 138.047C772.745 139.102 772.133 140.586 771.898 142.5H782.484V142.227C782.38 140.391 781.885 138.971 781 137.969C780.115 136.953 778.917 136.445 777.406 136.445ZM802.602 149.395C802.602 148.418 802.23 147.663 801.488 147.129C800.759 146.582 799.477 146.113 797.641 145.723C795.818 145.332 794.366 144.863 793.285 144.316C792.217 143.77 791.423 143.118 790.902 142.363C790.395 141.608 790.141 140.71 790.141 139.668C790.141 137.936 790.87 136.471 792.328 135.273C793.799 134.076 795.674 133.477 797.953 133.477C800.349 133.477 802.289 134.095 803.773 135.332C805.271 136.569 806.02 138.151 806.02 140.078H802.387C802.387 139.089 801.964 138.236 801.117 137.52C800.284 136.803 799.229 136.445 797.953 136.445C796.638 136.445 795.609 136.732 794.867 137.305C794.125 137.878 793.754 138.626 793.754 139.551C793.754 140.423 794.099 141.081 794.789 141.523C795.479 141.966 796.723 142.389 798.52 142.793C800.329 143.197 801.794 143.678 802.914 144.238C804.034 144.798 804.861 145.475 805.395 146.27C805.941 147.051 806.215 148.008 806.215 149.141C806.215 151.029 805.46 152.546 803.949 153.691C802.439 154.824 800.479 155.391 798.07 155.391C796.378 155.391 794.88 155.091 793.578 154.492C792.276 153.893 791.254 153.06 790.512 151.992C789.783 150.911 789.418 149.746 789.418 148.496H793.031C793.096 149.707 793.578 150.671 794.477 151.387C795.388 152.09 796.586 152.441 798.07 152.441C799.438 152.441 800.531 152.168 801.352 151.621C802.185 151.061 802.602 150.319 802.602 149.395ZM839.555 150.02L843.617 133.867H847.23L841.078 155H838.148L833.012 138.984L828.012 155H825.082L818.949 133.867H822.543L826.703 149.688L831.625 133.867H834.535L839.555 150.02ZM859.691 155.391C856.827 155.391 854.496 154.453 852.699 152.578C850.902 150.69 850.004 148.171 850.004 145.02V144.355C850.004 142.259 850.401 140.391 851.195 138.75C852.003 137.096 853.122 135.807 854.555 134.883C856 133.945 857.562 133.477 859.242 133.477C861.99 133.477 864.125 134.382 865.648 136.191C867.172 138.001 867.934 140.592 867.934 143.965V145.469H853.617C853.669 147.552 854.275 149.238 855.434 150.527C856.605 151.803 858.09 152.441 859.887 152.441C861.163 152.441 862.243 152.181 863.129 151.66C864.014 151.139 864.789 150.449 865.453 149.59L867.66 151.309C865.889 154.03 863.233 155.391 859.691 155.391ZM859.242 136.445C857.784 136.445 856.56 136.979 855.57 138.047C854.581 139.102 853.969 140.586 853.734 142.5H864.32V142.227C864.216 140.391 863.721 138.971 862.836 137.969C861.951 136.953 860.753 136.445 859.242 136.445ZM890.023 144.668C890.023 147.897 889.281 150.495 887.797 152.461C886.312 154.414 884.32 155.391 881.82 155.391C879.151 155.391 877.087 154.447 875.629 152.559L875.453 155H872.133V125H875.746V136.191C877.204 134.382 879.216 133.477 881.781 133.477C884.346 133.477 886.358 134.447 887.816 136.387C889.288 138.327 890.023 140.983 890.023 144.355V144.668ZM886.41 144.258C886.41 141.797 885.935 139.896 884.984 138.555C884.034 137.214 882.667 136.543 880.883 136.543C878.5 136.543 876.788 137.65 875.746 139.863V149.004C876.853 151.217 878.578 152.324 880.922 152.324C882.654 152.324 884.001 151.654 884.965 150.312C885.928 148.971 886.41 146.953 886.41 144.258Z" fill="black"/>
<path d="M53.3242 254H49.5742V225.562H53.3242V254ZM63.0508 232.867L63.168 235.523C64.7826 233.492 66.8919 232.477 69.4961 232.477C73.9622 232.477 76.2148 234.996 76.2539 240.035V254H72.6406V240.016C72.6276 238.492 72.276 237.366 71.5859 236.637C70.9089 235.908 69.8477 235.543 68.4023 235.543C67.2305 235.543 66.2018 235.855 65.3164 236.48C64.431 237.105 63.7409 237.926 63.2461 238.941V254H59.6328V232.867H63.0508ZM85.6289 254H82.0156V232.867H85.6289V254ZM81.7227 227.262C81.7227 226.676 81.8984 226.181 82.25 225.777C82.6146 225.374 83.1484 225.172 83.8516 225.172C84.5547 225.172 85.0885 225.374 85.4531 225.777C85.8177 226.181 86 226.676 86 227.262C86 227.848 85.8177 228.336 85.4531 228.727C85.0885 229.117 84.5547 229.312 83.8516 229.312C83.1484 229.312 82.6146 229.117 82.25 228.727C81.8984 228.336 81.7227 227.848 81.7227 227.262ZM99.9062 251.441C101.195 251.441 102.322 251.051 103.285 250.27C104.249 249.488 104.783 248.512 104.887 247.34H108.305C108.24 248.551 107.823 249.703 107.055 250.797C106.286 251.891 105.258 252.763 103.969 253.414C102.693 254.065 101.339 254.391 99.9062 254.391C97.0286 254.391 94.737 253.434 93.0312 251.52C91.3385 249.592 90.4922 246.962 90.4922 243.629V243.023C90.4922 240.966 90.8698 239.137 91.625 237.535C92.3802 235.934 93.4609 234.69 94.8672 233.805C96.2865 232.919 97.9596 232.477 99.8867 232.477C102.257 232.477 104.223 233.186 105.785 234.605C107.361 236.025 108.201 237.867 108.305 240.133H104.887C104.783 238.766 104.262 237.646 103.324 236.773C102.4 235.888 101.254 235.445 99.8867 235.445C98.0508 235.445 96.625 236.109 95.6094 237.438C94.6068 238.753 94.1055 240.66 94.1055 243.16V243.844C94.1055 246.279 94.6068 248.154 95.6094 249.469C96.612 250.784 98.0443 251.441 99.9062 251.441ZM116.293 254H112.68V232.867H116.293V254ZM112.387 227.262C112.387 226.676 112.562 226.181 112.914 225.777C113.279 225.374 113.812 225.172 114.516 225.172C115.219 225.172 115.753 225.374 116.117 225.777C116.482 226.181 116.664 226.676 116.664 227.262C116.664 227.848 116.482 228.336 116.117 228.727C115.753 229.117 115.219 229.312 114.516 229.312C113.812 229.312 113.279 229.117 112.914 228.727C112.562 228.336 112.387 227.848 112.387 227.262ZM121.137 243.238C121.137 241.168 121.54 239.306 122.348 237.652C123.168 235.999 124.301 234.723 125.746 233.824C127.204 232.926 128.865 232.477 130.727 232.477C133.604 232.477 135.928 233.473 137.699 235.465C139.483 237.457 140.375 240.107 140.375 243.414V243.668C140.375 245.725 139.978 247.574 139.184 249.215C138.402 250.842 137.276 252.112 135.805 253.023C134.346 253.935 132.667 254.391 130.766 254.391C127.901 254.391 125.577 253.395 123.793 251.402C122.022 249.41 121.137 246.773 121.137 243.492V243.238ZM124.77 243.668C124.77 246.012 125.31 247.893 126.391 249.312C127.484 250.732 128.943 251.441 130.766 251.441C132.602 251.441 134.06 250.725 135.141 249.293C136.221 247.848 136.762 245.829 136.762 243.238C136.762 240.921 136.208 239.046 135.102 237.613C134.008 236.168 132.549 235.445 130.727 235.445C128.943 235.445 127.504 236.155 126.41 237.574C125.316 238.993 124.77 241.025 124.77 243.668Z" fill="white"/>
<path d="M195.324 254H191.574V225.562H195.324V254ZM205.051 232.867L205.168 235.523C206.783 233.492 208.892 232.477 211.496 232.477C215.962 232.477 218.215 234.996 218.254 240.035V254H214.641V240.016C214.628 238.492 214.276 237.366 213.586 236.637C212.909 235.908 211.848 235.543 210.402 235.543C209.23 235.543 208.202 235.855 207.316 236.48C206.431 237.105 205.741 237.926 205.246 238.941V254H201.633V232.867H205.051ZM228.605 227.75V232.867H232.551V235.66H228.605V248.766C228.605 249.612 228.781 250.25 229.133 250.68C229.484 251.096 230.083 251.305 230.93 251.305C231.346 251.305 231.919 251.227 232.648 251.07V254C231.698 254.26 230.773 254.391 229.875 254.391C228.26 254.391 227.043 253.902 226.223 252.926C225.402 251.949 224.992 250.562 224.992 248.766V235.66H221.145V232.867H224.992V227.75H228.605ZM247.004 236.109C246.457 236.018 245.865 235.973 245.227 235.973C242.857 235.973 241.249 236.982 240.402 239V254H236.789V232.867H240.305L240.363 235.309C241.548 233.421 243.228 232.477 245.402 232.477C246.105 232.477 246.639 232.568 247.004 232.75V236.109ZM248.996 243.238C248.996 241.168 249.4 239.306 250.207 237.652C251.027 235.999 252.16 234.723 253.605 233.824C255.064 232.926 256.724 232.477 258.586 232.477C261.464 232.477 263.788 233.473 265.559 235.465C267.342 237.457 268.234 240.107 268.234 243.414V243.668C268.234 245.725 267.837 247.574 267.043 249.215C266.262 250.842 265.135 252.112 263.664 253.023C262.206 253.935 260.526 254.391 258.625 254.391C255.76 254.391 253.436 253.395 251.652 251.402C249.882 249.41 248.996 246.773 248.996 243.492V243.238ZM252.629 243.668C252.629 246.012 253.169 247.893 254.25 249.312C255.344 250.732 256.802 251.441 258.625 251.441C260.461 251.441 261.919 250.725 263 249.293C264.081 247.848 264.621 245.829 264.621 243.238C264.621 240.921 264.068 239.046 262.961 237.613C261.867 236.168 260.409 235.445 258.586 235.445C256.802 235.445 255.363 236.155 254.27 237.574C253.176 238.993 252.629 241.025 252.629 243.668Z" fill="#BAC2C1"/>
<path d="M325.824 240.582L330.512 232.867H334.73L327.816 243.316L334.945 254H330.766L325.883 246.09L321 254H316.801L323.93 243.316L317.016 232.867H321.195L325.824 240.582ZM341.977 232.867L342.074 235.211C343.624 233.388 345.714 232.477 348.344 232.477C351.299 232.477 353.311 233.609 354.379 235.875C355.082 234.859 355.993 234.039 357.113 233.414C358.246 232.789 359.581 232.477 361.117 232.477C365.753 232.477 368.109 234.931 368.188 239.84V254H364.574V240.055C364.574 238.544 364.229 237.418 363.539 236.676C362.849 235.921 361.69 235.543 360.062 235.543C358.721 235.543 357.608 235.947 356.723 236.754C355.837 237.548 355.323 238.622 355.18 239.977V254H351.547V240.152C351.547 237.079 350.043 235.543 347.035 235.543C344.665 235.543 343.044 236.552 342.172 238.57V254H338.559V232.867H341.977ZM377.582 254H373.969V224H377.582V254Z" fill="#BAC2C1"/>
<path d="M435.824 240.582L440.512 232.867H444.73L437.816 243.316L444.945 254H440.766L435.883 246.09L431 254H426.801L433.93 243.316L427.016 232.867H431.195L435.824 240.582ZM452.191 235.426C453.793 233.46 455.876 232.477 458.441 232.477C462.908 232.477 465.16 234.996 465.199 240.035V254H461.586V240.016C461.573 238.492 461.221 237.366 460.531 236.637C459.854 235.908 458.793 235.543 457.348 235.543C456.176 235.543 455.147 235.855 454.262 236.48C453.376 237.105 452.686 237.926 452.191 238.941V254H448.578V224H452.191V235.426ZM475.512 227.75V232.867H479.457V235.66H475.512V248.766C475.512 249.612 475.688 250.25 476.039 250.68C476.391 251.096 476.99 251.305 477.836 251.305C478.253 251.305 478.826 251.227 479.555 251.07V254C478.604 254.26 477.68 254.391 476.781 254.391C475.167 254.391 473.949 253.902 473.129 252.926C472.309 251.949 471.898 250.562 471.898 248.766V235.66H468.051V232.867H471.898V227.75H475.512ZM487.094 232.867L487.191 235.211C488.741 233.388 490.831 232.477 493.461 232.477C496.417 232.477 498.428 233.609 499.496 235.875C500.199 234.859 501.111 234.039 502.23 233.414C503.363 232.789 504.698 232.477 506.234 232.477C510.87 232.477 513.227 234.931 513.305 239.84V254H509.691V240.055C509.691 238.544 509.346 237.418 508.656 236.676C507.966 235.921 506.807 235.543 505.18 235.543C503.839 235.543 502.725 235.947 501.84 236.754C500.954 237.548 500.44 238.622 500.297 239.977V254H496.664V240.152C496.664 237.079 495.16 235.543 492.152 235.543C489.783 235.543 488.161 236.552 487.289 238.57V254H483.676V232.867H487.094ZM522.699 254H519.086V224H522.699V254Z" fill="#BAC2C1"/>
<path d="M582.211 251.441C583.5 251.441 584.626 251.051 585.59 250.27C586.553 249.488 587.087 248.512 587.191 247.34H590.609C590.544 248.551 590.128 249.703 589.359 250.797C588.591 251.891 587.562 252.763 586.273 253.414C584.997 254.065 583.643 254.391 582.211 254.391C579.333 254.391 577.042 253.434 575.336 251.52C573.643 249.592 572.797 246.962 572.797 243.629V243.023C572.797 240.966 573.174 239.137 573.93 237.535C574.685 235.934 575.766 234.69 577.172 233.805C578.591 232.919 580.264 232.477 582.191 232.477C584.561 232.477 586.527 233.186 588.09 234.605C589.665 236.025 590.505 237.867 590.609 240.133H587.191C587.087 238.766 586.566 237.646 585.629 236.773C584.704 235.888 583.559 235.445 582.191 235.445C580.355 235.445 578.93 236.109 577.914 237.438C576.911 238.753 576.41 240.66 576.41 243.16V243.844C576.41 246.279 576.911 248.154 577.914 249.469C578.917 250.784 580.349 251.441 582.211 251.441ZM606.977 248.395C606.977 247.418 606.605 246.663 605.863 246.129C605.134 245.582 603.852 245.113 602.016 244.723C600.193 244.332 598.741 243.863 597.66 243.316C596.592 242.77 595.798 242.118 595.277 241.363C594.77 240.608 594.516 239.71 594.516 238.668C594.516 236.936 595.245 235.471 596.703 234.273C598.174 233.076 600.049 232.477 602.328 232.477C604.724 232.477 606.664 233.095 608.148 234.332C609.646 235.569 610.395 237.151 610.395 239.078H606.762C606.762 238.089 606.339 237.236 605.492 236.52C604.659 235.803 603.604 235.445 602.328 235.445C601.013 235.445 599.984 235.732 599.242 236.305C598.5 236.878 598.129 237.626 598.129 238.551C598.129 239.423 598.474 240.081 599.164 240.523C599.854 240.966 601.098 241.389 602.895 241.793C604.704 242.197 606.169 242.678 607.289 243.238C608.409 243.798 609.236 244.475 609.77 245.27C610.316 246.051 610.59 247.008 610.59 248.141C610.59 250.029 609.835 251.546 608.324 252.691C606.814 253.824 604.854 254.391 602.445 254.391C600.753 254.391 599.255 254.091 597.953 253.492C596.651 252.893 595.629 252.06 594.887 250.992C594.158 249.911 593.793 248.746 593.793 247.496H597.406C597.471 248.707 597.953 249.671 598.852 250.387C599.763 251.09 600.961 251.441 602.445 251.441C603.812 251.441 604.906 251.168 605.727 250.621C606.56 250.061 606.977 249.319 606.977 248.395ZM627.602 248.395C627.602 247.418 627.23 246.663 626.488 246.129C625.759 245.582 624.477 245.113 622.641 244.723C620.818 244.332 619.366 243.863 618.285 243.316C617.217 242.77 616.423 242.118 615.902 241.363C615.395 240.608 615.141 239.71 615.141 238.668C615.141 236.936 615.87 235.471 617.328 234.273C618.799 233.076 620.674 232.477 622.953 232.477C625.349 232.477 627.289 233.095 628.773 234.332C630.271 235.569 631.02 237.151 631.02 239.078H627.387C627.387 238.089 626.964 237.236 626.117 236.52C625.284 235.803 624.229 235.445 622.953 235.445C621.638 235.445 620.609 235.732 619.867 236.305C619.125 236.878 618.754 237.626 618.754 238.551C618.754 239.423 619.099 240.081 619.789 240.523C620.479 240.966 621.723 241.389 623.52 241.793C625.329 242.197 626.794 242.678 627.914 243.238C629.034 243.798 629.861 244.475 630.395 245.27C630.941 246.051 631.215 247.008 631.215 248.141C631.215 250.029 630.46 251.546 628.949 252.691C627.439 253.824 625.479 254.391 623.07 254.391C621.378 254.391 619.88 254.091 618.578 253.492C617.276 252.893 616.254 252.06 615.512 250.992C614.783 249.911 614.418 248.746 614.418 247.496H618.031C618.096 248.707 618.578 249.671 619.477 250.387C620.388 251.09 621.586 251.441 623.07 251.441C624.438 251.441 625.531 251.168 626.352 250.621C627.185 250.061 627.602 249.319 627.602 248.395Z" fill="#BAC2C1"/>
<path d="M685.465 232.867V256.441C685.465 260.504 683.622 262.535 679.938 262.535C679.143 262.535 678.408 262.418 677.73 262.184V259.293C678.147 259.397 678.694 259.449 679.371 259.449C680.178 259.449 680.79 259.228 681.207 258.785C681.637 258.355 681.852 257.6 681.852 256.52V232.867H685.465ZM681.48 227.262C681.48 226.689 681.656 226.201 682.008 225.797C682.372 225.38 682.9 225.172 683.59 225.172C684.293 225.172 684.827 225.374 685.191 225.777C685.556 226.181 685.738 226.676 685.738 227.262C685.738 227.848 685.556 228.336 685.191 228.727C684.827 229.117 684.293 229.312 683.59 229.312C682.887 229.312 682.359 229.117 682.008 228.727C681.656 228.336 681.48 227.848 681.48 227.262ZM703.609 248.395C703.609 247.418 703.238 246.663 702.496 246.129C701.767 245.582 700.484 245.113 698.648 244.723C696.826 244.332 695.374 243.863 694.293 243.316C693.225 242.77 692.431 242.118 691.91 241.363C691.402 240.608 691.148 239.71 691.148 238.668C691.148 236.936 691.878 235.471 693.336 234.273C694.807 233.076 696.682 232.477 698.961 232.477C701.357 232.477 703.297 233.095 704.781 234.332C706.279 235.569 707.027 237.151 707.027 239.078H703.395C703.395 238.089 702.971 237.236 702.125 236.52C701.292 235.803 700.237 235.445 698.961 235.445C697.646 235.445 696.617 235.732 695.875 236.305C695.133 236.878 694.762 237.626 694.762 238.551C694.762 239.423 695.107 240.081 695.797 240.523C696.487 240.966 697.73 241.389 699.527 241.793C701.337 242.197 702.802 242.678 703.922 243.238C705.042 243.798 705.868 244.475 706.402 245.27C706.949 246.051 707.223 247.008 707.223 248.141C707.223 250.029 706.467 251.546 704.957 252.691C703.447 253.824 701.487 254.391 699.078 254.391C697.385 254.391 695.888 254.091 694.586 253.492C693.284 252.893 692.262 252.06 691.52 250.992C690.79 249.911 690.426 248.746 690.426 247.496H694.039C694.104 248.707 694.586 249.671 695.484 250.387C696.396 251.09 697.594 251.441 699.078 251.441C700.445 251.441 701.539 251.168 702.359 250.621C703.193 250.061 703.609 249.319 703.609 248.395Z" fill="#BAC2C1"/>
</svg>
